# xmcd
#
# Track frame offsets:
#	150
#	14192
#	35660
#	76966
#	91730
#	99225
#	119227
#	133240
#	153712
#	170096
#	190032
#	215406
#	236351
#	248620
#	265751
#
# Disc length: 3775 seconds
#
# Revision: 1
# Processed by: cddbd v1.5.1PL2 Copyright (c) Steve Scherf et al.
# Submitted via: audiograbber 1.83.01
#
DISCID=ce0ebd0f
DTITLE=John Denver - The gift you are
DYEAR=1993
DGENRE=Country
TTITLE0=Annie's song
TTITLE1=The gift you are
TTITLE2=The foxfire suite
TTITLE3=Home grown tomatoes
TTITLE4=Deal with the ladies
TTITLE5=Ponies
TTITLE6=Ancient rhymes
TTITLE7=All this joy
TTITLE8=Falling Leaves
TTITLE9=Chained to the wheel
TTITLE10=Amazon
TTITLE11=Sing Australia
TTITLE12=Alaska and me
TTITLE13=A countrygirl in Paris
TTITLE14=Bread and roses
EXTD=
EXTT0=
EXTT1=
EXTT2=
EXTT3=
EXTT4=
EXTT5=
EXTT6=
EXTT7=
EXTT8=
EXTT9=
EXTT10=
EXTT11=
EXTT12=
EXTT13=
EXTT14=
PLAYORDER=
